<svg xmlns="http://www.w3.org/2000/svg" width="1440" height="1080" viewBox="0 0 1440 1080" role="img" aria-label="Home dashboard wireframe v1">
  <rect width="1440" height="1080" fill="#FBF8F3"/>
  <rect x="80" y="60" width="1280" height="960" rx="28" fill="#ffffff" stroke="#D7C8B8" stroke-width="2"/>

  <rect x="120" y="110" width="1200" height="88" rx="18" fill="#F7F2EB" stroke="#D9CBBB" stroke-width="2"/>
  <rect x="152" y="136" width="180" height="36" rx="10" fill="#8B6B4E"/>
  <rect x="1040" y="136" width="120" height="32" rx="10" fill="#EEE5DA"/>
  <rect x="1170" y="136" width="120" height="32" rx="10" fill="#EEE5DA"/>
  <text x="170" y="160" font-family="Arial, sans-serif" font-size="20" fill="#FFFFFF">my-first-web</text>
  <text x="1062" y="158" font-family="Arial, sans-serif" font-size="14" fill="#6B5A4E">로그인</text>
  <text x="1193" y="158" font-family="Arial, sans-serif" font-size="14" fill="#6B5A4E">회원가입</text>

  <rect x="120" y="226" width="128" height="720" rx="18" fill="#F7F2EB" stroke="#D9CBBB" stroke-width="2"/>
  <text x="150" y="266" font-family="Arial, sans-serif" font-size="18" fill="#8B6B4E">카테고리</text>
  <rect x="144" y="292" width="80" height="28" rx="8" fill="#8B6B4E"/>
  <rect x="144" y="332" width="80" height="28" rx="8" fill="#EEE5DA"/>
  <rect x="144" y="372" width="80" height="28" rx="8" fill="#EEE5DA"/>
  <rect x="144" y="412" width="80" height="28" rx="8" fill="#EEE5DA"/>

  <rect x="272" y="226" width="648" height="720" rx="18" fill="#FFFDF9" stroke="#D9CBBB" stroke-width="2"/>
  <text x="312" y="268" font-family="Arial, sans-serif" font-size="18" fill="#8B6B4E">홈 / 포스트 카드 목록</text>
  <rect x="312" y="300" width="560" height="64" rx="14" fill="#F7F2EB" stroke="#D9CBBB" stroke-width="2"/>
  <text x="336" y="339" font-family="Arial, sans-serif" font-size="14" fill="#6B5A4E">검색바</text>

  <rect x="312" y="392" width="268" height="160" rx="16" fill="#FFFFFF" stroke="#D9CBBB" stroke-width="2"/>
  <rect x="596" y="392" width="268" height="160" rx="16" fill="#FFFFFF" stroke="#D9CBBB" stroke-width="2"/>
  <rect x="312" y="570" width="268" height="160" rx="16" fill="#FFFFFF" stroke="#D9CBBB" stroke-width="2"/>
  <rect x="596" y="570" width="268" height="160" rx="16" fill="#FFFFFF" stroke="#D9CBBB" stroke-width="2"/>
  <rect x="312" y="748" width="268" height="160" rx="16" fill="#FFFFFF" stroke="#D9CBBB" stroke-width="2"/>
  <rect x="596" y="748" width="268" height="160" rx="16" fill="#FFFFFF" stroke="#D9CBBB" stroke-width="2"/>

  <text x="336" y="430" font-family="Arial, sans-serif" font-size="15" fill="#8B6B4E">포스트 카드</text>
  <text x="620" y="430" font-family="Arial, sans-serif" font-size="15" fill="#8B6B4E">포스트 카드</text>
  <text x="336" y="608" font-family="Arial, sans-serif" font-size="15" fill="#8B6B4E">포스트 카드</text>
  <text x="620" y="608" font-family="Arial, sans-serif" font-size="15" fill="#8B6B4E">포스트 카드</text>
  <text x="336" y="786" font-family="Arial, sans-serif" font-size="15" fill="#8B6B4E">포스트 카드</text>
  <text x="620" y="786" font-family="Arial, sans-serif" font-size="15" fill="#8B6B4E">포스트 카드</text>

  <rect x="940" y="226" width="360" height="720" rx="18" fill="#F7F2EB" stroke="#D9CBBB" stroke-width="2"/>
  <text x="972" y="268" font-family="Arial, sans-serif" font-size="18" fill="#8B6B4E">사이드바</text>
  <rect x="972" y="302" width="296" height="104" rx="16" fill="#FFFFFF" stroke="#D9CBBB" stroke-width="2"/>
  <rect x="972" y="424" width="296" height="104" rx="16" fill="#FFFFFF" stroke="#D9CBBB" stroke-width="2"/>
  <rect x="972" y="546" width="296" height="104" rx="16" fill="#FFFFFF" stroke="#D9CBBB" stroke-width="2"/>
  <rect x="972" y="668" width="296" height="104" rx="16" fill="#FFFFFF" stroke="#D9CBBB" stroke-width="2"/>
  <text x="996" y="347" font-family="Arial, sans-serif" font-size="14" fill="#6B5A4E">소개 / 공지</text>
  <text x="996" y="469" font-family="Arial, sans-serif" font-size="14" fill="#6B5A4E">최근 글</text>
  <text x="996" y="591" font-family="Arial, sans-serif" font-size="14" fill="#6B5A4E">카테고리</text>
  <text x="996" y="713" font-family="Arial, sans-serif" font-size="14" fill="#6B5A4E">바로가기</text>

  <rect x="120" y="972" width="1200" height="36" rx="12" fill="#111111"/>
  <text x="144" y="996" font-family="Arial, sans-serif" font-size="13" fill="#FFFFFF">하단 고정 바 / GitHub / Email / 브라운 테마</text>
</svg>
